<?xml version="1.0" standalone="no"?>
<!DOCTYPE svg PUBLIC "-//W3C//DTD SVG 20010904//EN"
 "http://www.w3.org/TR/2001/REC-SVG-20010904/DTD/svg10.dtd">
<svg version="1.0" xmlns="http://www.w3.org/2000/svg"
 width="337.000000pt" height="337.000000pt" viewBox="0 0 337.000000 337.000000"
 preserveAspectRatio="xMidYMid meet">
<metadata>
Created by potrace 1.14, written by Peter Selinger 2001-2017
</metadata>
<g transform="translate(0.000000,337.000000) scale(0.100000,-0.100000)"
fill="#000000" stroke="none">
<path d="M1549 2843 c-12 -3 -15 -13 -13 -36 2 -18 5 -56 7 -85 4 -59 8 -65
39 -66 13 -1 29 -6 37 -10 10 -6 12 -5 7 2 -5 9 8 12 44 12 38 0 49 -3 44 -12
-6 -10 -5 -10 7 -1 8 6 27 13 43 15 35 4 47 27 17 35 -12 3 -18 10 -14 17 4 6
6 30 6 53 -2 33 2 43 13 43 9 0 14 7 12 17 -2 13 -16 18 -56 20 -46 3 -52 1
-52 -16 0 -11 5 -21 12 -23 7 -3 12 -25 13 -56 l0 -52 -56 0 c-52 0 -57 2 -61
25 -3 14 -1 25 5 25 5 0 4 6 -2 14 -7 8 -11 20 -10 28 6 49 -2 59 -42 51z"/>
<path d="M1458 2834 c-5 -4 -46 -12 -72 -13 -15 -1 -17 -6 -12 -35 4 -19 9
-57 11 -86 5 -55 29 -87 51 -69 6 5 27 11 48 13 48 7 55 12 49 35 -4 16 -9 18
-29 11 -17 -7 -24 -6 -24 3 0 7 -3 8 -8 2 -12 -17 -28 -14 -29 6 -2 18 16 25
55 20 7 -1 12 10 12 29 0 27 -2 29 -18 21 -13 -7 -23 -6 -30 1 -9 9 -12 9 -12
0 0 -7 -4 -12 -10 -12 -5 0 -10 4 -10 9 0 11 39 26 58 22 12 -2 29 26 20 35
-7 7 -45 13 -50 8z"/>
<path d="M1860 2830 c0 -5 -8 -11 -19 -15 -11 -3 -23 -21 -28 -44 -12 -46 3
-89 38 -110 29 -18 125 -23 127 -7 1 6 4 30 7 54 3 26 1 41 -4 37 -5 -3 -12
-2 -15 3 -2 4 -20 7 -38 7 -38 -1 -52 -29 -19 -40 24 -7 27 -20 8 -28 -25 -9
-69 45 -47 58 5 3 7 11 4 18 -5 15 35 40 57 35 7 -2 22 -11 31 -21 16 -18 17
-18 27 1 18 34 -9 56 -73 59 -31 1 -56 -2 -56 -7z"/>
<path d="M2011 2735 c-25 -101 -25 -95 -5 -95 9 0 12 -5 8 -12 -4 -7 -4 -10 1
-6 4 4 14 3 22 -4 11 -8 12 -7 8 5 -4 8 -1 18 4 22 6 3 9 11 6 16 -4 5 0 17 7
28 9 13 19 16 34 11 18 -7 20 -15 17 -53 -4 -43 -3 -44 24 -42 15 1 27 7 26
13 -2 7 0 12 5 12 4 0 8 12 8 28 2 28 12 88 19 109 2 7 -5 18 -16 24 -28 15
-42 0 -48 -52 -1 -9 -50 2 -57 13 -4 6 -2 13 3 17 17 10 -4 51 -25 51 -16 0
-23 -15 -41 -85z"/>
<path d="M1229 2785 c-3 -2 -16 -6 -30 -8 -20 -4 -24 -9 -21 -33 3 -32 9 -69
12 -69 2 0 5 -14 14 -54 6 -27 27 -45 36 -31 3 5 17 10 30 12 14 2 31 7 38 11
6 5 18 5 25 1 6 -4 9 -4 5 0 -7 9 13 36 23 30 3 -2 6 19 6 47 0 43 -4 53 -29
75 -27 22 -95 34 -109 19z m62 -45 c27 -15 26 -75 -1 -90 -16 -9 -24 -7 -36 5
-9 9 -11 15 -4 15 6 0 8 5 5 10 -4 6 -10 24 -15 40 -8 26 -6 30 11 30 11 0 29
-5 40 -10z"/>
<path d="M1267 2729 c7 -7 15 -10 18 -7 3 3 -2 9 -12 12 -14 6 -15 5 -6 -5z"/>
<path d="M2211 2761 c-8 -13 -3 -20 20 -30 18 -8 26 -17 22 -24 -4 -7 -8 -16
-9 -22 -2 -5 -9 -30 -17 -56 -13 -44 -13 -45 9 -56 20 -9 24 -7 37 21 19 41
33 82 36 107 1 7 5 8 14 2 20 -15 42 -9 42 10 0 15 -17 24 -73 42 -67 21 -73
22 -81 6z"/>
<path d="M1000 2709 c-8 -5 -32 -15 -52 -23 -34 -13 -44 -34 -25 -52 4 -4 7
-16 7 -26 0 -10 5 -18 11 -18 6 0 9 -7 5 -15 -3 -8 -1 -15 5 -15 6 0 8 -4 5
-8 -2 -4 4 -18 13 -31 14 -19 22 -22 36 -13 10 5 19 19 20 30 1 12 -2 19 -6
17 -4 -3 -9 2 -13 10 -7 20 21 20 41 0 8 -8 19 -13 24 -10 5 4 9 2 9 -3 0 -5
7 -9 15 -9 8 0 15 5 15 10 0 5 7 7 15 3 31 -12 13 20 -26 44 -33 20 -37 26
-22 32 10 3 13 7 7 7 -7 1 -12 7 -11 14 1 34 -5 46 -30 55 -16 5 -35 5 -43 1z
m14 -76 c-13 -10 -21 -10 -32 -1 -12 10 -11 14 4 25 13 10 21 10 32 1 12 -10
11 -14 -4 -25z"/>
<path d="M2434 2606 c-31 -65 -37 -85 -27 -94 19 -18 41 -14 48 9 5 13 12 18
22 14 13 -4 14 -3 3 10 -13 16 -3 20 24 9 9 -3 13 -10 10 -15 -3 -5 3 -6 12
-2 13 5 15 3 9 -7 -5 -9 -4 -11 3 -6 7 4 12 14 12 22 0 10 5 12 13 8 8 -6 8
-3 -1 9 -8 9 -22 19 -32 22 -10 3 -20 14 -23 25 -5 18 -4 18 32 -1 34 -18 37
-18 48 -2 7 9 12 17 10 19 -1 1 -29 15 -63 32 l-61 31 -39 -83z"/>
<path d="M815 2623 c-27 -14 -51 -27 -53 -28 -4 -4 55 -125 73 -148 13 -18 15
-18 58 2 25 12 49 26 52 31 4 6 10 8 15 5 4 -3 7 3 6 12 -4 25 -30 28 -61 7
-14 -9 -29 -14 -32 -10 -16 16 -9 35 17 46 28 11 32 23 17 48 -7 9 -15 8 -37
-8 -34 -24 -40 -25 -40 -5 0 8 7 15 15 15 8 0 15 5 15 10 0 6 6 9 12 8 7 -2
14 7 16 20 4 28 -10 28 -73 -5z"/>
<path d="M1499 2621 c-2 -6 -24 -13 -49 -17 -25 -3 -57 -9 -71 -14 -18 -5 -31
-4 -39 3 -8 8 -11 8 -7 1 4 -7 -21 -19 -66 -32 -147 -42 -340 -131 -401 -184
-11 -10 -25 -18 -32 -18 -6 0 -14 -7 -18 -15 -3 -8 -12 -15 -20 -15 -7 0 -16
-7 -20 -15 -3 -8 -10 -15 -16 -15 -6 0 -17 -6 -25 -12 -7 -7 -39 -35 -71 -63
-32 -27 -67 -61 -79 -73 -11 -13 -37 -43 -57 -65 -21 -23 -38 -45 -38 -49 0
-4 -7 -14 -15 -22 -17 -17 -83 -119 -115 -178 -20 -37 -29 -43 -59 -39 -7 2
-10 -3 -6 -9 4 -7 1 -10 -6 -9 -30 6 -65 -12 -83 -42 -21 -35 -23 -118 -6
-179 7 -23 7 -36 0 -38 -5 -2 -10 -8 -10 -13 0 -6 5 -7 10 -4 6 4 10 -6 10
-21 0 -26 -1 -27 -14 -9 -12 17 -14 10 -13 -60 0 -44 -3 -111 -6 -150 -4 -38
-8 -87 -9 -107 -1 -21 -8 -40 -16 -43 -23 -9 -2 -26 31 -25 227 2 951 -11 979
-18 20 -5 39 -8 42 -5 4 4 80 16 101 15 637 -15 1634 -22 1641 -11 1 3 17 4
33 1 16 -2 43 3 59 11 21 10 35 11 47 4 13 -7 16 -6 11 2 -5 7 3 11 23 12 17
1 34 2 39 3 69 16 89 20 97 21 43 7 57 33 29 56 -9 7 -23 30 -31 51 -8 21 -19
38 -24 38 -5 0 -9 10 -9 23 0 12 -7 33 -16 45 -9 13 -22 51 -30 85 -54 237
-182 504 -301 628 -31 32 -34 42 -39 109 -4 64 -8 76 -31 96 -15 13 -29 21
-31 19 -3 -2 -14 0 -24 6 -11 6 -43 11 -71 11 -42 -1 -56 4 -84 28 -18 16 -57
44 -86 62 -29 18 -62 38 -73 45 -125 77 -414 171 -579 188 -51 5 -293 6 -320
1 -11 -2 -23 1 -26 7 -4 6 -8 5 -10 -2z m244 -105 c34 5 77 -17 83 -42 8 -33
2 -38 -54 -40 -26 -1 -108 -5 -182 -9 -98 -4 -132 -3 -124 5 6 6 32 12 58 15
26 2 55 10 64 18 10 8 27 18 38 21 12 4 29 15 39 26 12 14 23 17 38 11 12 -5
30 -7 40 -5z m-378 -87 l-8 -24 -8 24 c-10 27 -2 48 13 33 6 -6 7 -20 3 -33z
m705 -36 c0 -10 -24 -13 -97 -13 -107 0 -109 5 -19 43 l60 25 28 -21 c15 -11
28 -27 28 -34z m-520 -243 c0 -5 -4 -10 -10 -10 -5 0 -10 5 -10 10 0 6 5 10
10 10 6 0 10 -4 10 -10z m21 -96 c18 -80 22 -110 11 -99 -10 11 -28 79 -37
140 -7 54 10 25 26 -41z m-70 8 c6 -20 16 -42 21 -49 5 -7 6 -17 2 -24 -9 -15
-24 11 -31 54 -3 18 -9 40 -15 51 -7 12 -7 16 0 12 6 -3 16 -23 23 -44z m125
6 c3 -18 7 -50 10 -70 4 -21 3 -46 -1 -55 -5 -10 -7 -24 -6 -32 1 -8 -2 -10
-9 -6 -9 6 -9 2 -1 -13 17 -31 13 -77 -9 -117 -16 -29 -18 -40 -9 -57 9 -16 8
-19 -3 -16 -7 3 -19 -2 -26 -11 -11 -14 -17 -11 -52 28 -22 24 -40 49 -40 55
1 6 11 -2 24 -18 16 -19 26 -24 31 -16 5 8 12 7 26 -6 21 -19 27 -6 7 15 -11
10 -10 11 5 6 20 -8 22 9 7 49 -10 28 -10 29 14 20 9 -3 13 -11 9 -18 -3 -6
-2 -7 3 -3 11 11 12 30 1 38 -4 3 -11 21 -13 38 -4 24 -1 36 13 46 10 7 15 17
11 21 -4 4 -3 13 3 21 6 7 8 13 3 13 -5 0 -10 30 -11 66 -1 68 6 80 13 22z
m-392 17 c-4 -8 -1 -15 5 -15 6 0 11 7 11 15 0 18 47 18 70 0 16 -13 50 -16
50 -5 0 4 10 6 23 4 12 -1 25 -3 30 -3 4 -1 7 -8 7 -16 0 -8 5 -15 10 -15 6 0
10 -8 10 -18 0 -10 11 -42 25 -70 14 -29 25 -57 25 -64 0 -19 -29 25 -30 45 0
9 -3 17 -8 17 -4 0 -13 14 -20 30 -13 29 -44 41 -56 21 -3 -4 10 -30 29 -57
19 -26 32 -50 30 -53 -7 -6 -42 37 -67 81 -21 38 -58 52 -73 28 -3 -5 -1 -10
5 -10 6 0 8 -4 5 -10 -3 -5 -2 -10 3 -10 11 0 55 -60 49 -67 -7 -7 -76 69 -77
85 0 6 -8 12 -17 13 -10 0 -26 2 -35 4 -10 2 -18 0 -18 -4 0 -4 -9 -7 -20 -7
-11 0 -20 3 -20 7 0 3 -11 4 -25 1 -14 -2 -25 0 -25 6 0 6 -3 17 -6 26 -5 13
-1 13 24 4 37 -14 60 -6 72 27 5 14 12 25 14 25 3 0 3 -7 0 -15z m462 -36 c1
-16 -3 -28 -9 -26 -13 4 -17 47 -5 47 5 0 6 6 2 13 -4 7 -3 8 2 4 5 -5 9 -22
10 -38z m808 -54 c-4 -8 -14 -15 -23 -15 -14 0 -14 -2 -1 -10 11 -7 6 -10 -20
-10 l-35 0 40 24 c22 13 41 25 42 25 1 1 0 -6 -3 -14z m-1261 -39 c15 -13 27
-28 27 -35 0 -6 6 -11 13 -11 16 0 53 -38 45 -46 -6 -6 -18 3 -98 76 -46 42
-35 57 13 16z m452 14 c-3 -5 -2 -10 3 -10 13 0 6 -70 -8 -84 -11 -11 -12 -10
-15 57 -2 35 1 47 12 47 8 0 11 -4 8 -10z m845 -10 c0 -5 -5 -10 -11 -10 -5 0
-7 5 -4 10 3 6 8 10 11 10 2 0 4 -4 4 -10z m-1377 -30 c18 -17 40 -33 50 -36
9 -3 17 -10 17 -15 0 -15 -15 -11 -40 11 -12 11 -31 22 -41 25 -11 4 -19 11
-19 16 0 5 -7 9 -15 9 -8 0 -15 5 -15 10 0 20 32 10 63 -20z m395 -17 c14 -31
15 -43 5 -43 -8 0 -33 47 -33 62 0 17 16 6 28 -19z m199 -12 c-5 -2 -13 3 -18
10 -15 24 -10 30 9 12 10 -10 14 -20 9 -22z m-706 8 c13 -8 36 -21 52 -29 30
-15 31 -33 2 -38 -10 -3 -15 0 -11 7 4 6 0 11 -8 11 -9 0 -16 4 -16 8 0 5 -16
16 -35 25 -19 9 -35 21 -35 26 0 13 22 8 51 -10z m130 -46 c0 -5 2 -37 5 -73
3 -36 5 -76 5 -89 -1 -13 5 -31 11 -39 11 -14 10 -15 -7 -7 -11 4 -28 8 -37 9
-21 0 -19 -4 -23 68 -2 39 2 61 11 69 8 7 11 21 7 40 -4 22 -2 29 11 29 9 0
16 -3 17 -7z m279 -57 c0 -5 -11 1 -25 14 -14 13 -25 31 -25 39 0 17 49 -36
50 -53z m-196 41 c17 -13 18 -14 2 -20 -10 -4 -14 -3 -11 2 3 6 -3 14 -12 20
-10 6 -13 11 -7 11 5 0 18 -6 28 -13z m246 -41 c0 -5 -9 -1 -20 9 -11 10 -20
25 -20 34 0 12 6 9 20 -9 11 -14 20 -29 20 -34z m27 48 c-3 -4 -2 -15 4 -25
12 -24 1 -25 -17 -1 -18 23 -17 32 3 32 9 0 13 -3 10 -6z m-166 -26 c11 -21
11 -22 -4 -9 -10 7 -17 17 -17 22 0 15 9 10 21 -13z m-401 2 c0 -5 -2 -10 -4
-10 -3 0 -8 5 -11 10 -3 6 -1 10 4 10 6 0 11 -4 11 -10z m30 -15 c0 -8 -2 -15
-4 -15 -2 0 -6 7 -10 15 -3 8 -1 15 4 15 6 0 10 -7 10 -15z m-425 -14 c17 -11
14 -12 -20 -7 -22 3 -46 6 -52 6 -7 0 -13 4 -13 9 0 12 62 7 85 -8z m746 -11
c-24 -20 -71 -27 -71 -11 0 5 17 13 38 19 55 15 60 13 33 -8z m-878 3 c-7 -2
-21 -2 -30 0 -10 3 -4 5 12 5 17 0 24 -2 18 -5z m1007 -28 c0 -2 3 -12 6 -22
5 -17 5 -17 -6 0 -6 9 -17 17 -24 17 -7 0 -13 7 -13 14 0 11 5 13 19 5 10 -5
18 -11 18 -14z m-29 -31 c13 -16 12 -16 -18 0 -18 9 -33 21 -33 27 0 13 32 -4
51 -27z m-67 -2 c23 -10 26 -16 17 -25 -8 -8 -14 -9 -19 -1 -4 6 -17 16 -30
23 -12 7 -20 17 -16 23 4 5 9 6 13 1 3 -4 19 -14 35 -21z m-105 -6 c7 -8 24
-17 38 -21 21 -5 24 -8 13 -15 -10 -6 -20 -4 -31 6 -14 12 -18 13 -22 2 -3 -7
-6 -3 -6 9 -1 12 -7 24 -13 26 -8 4 -9 6 -2 6 6 1 17 -5 23 -13z m280 -62 c-6
-8 -8 -21 -5 -30 4 -10 1 -14 -6 -12 -7 3 -13 9 -13 14 0 5 -4 14 -8 20 -4 7
-1 11 6 10 6 0 13 4 14 9 0 6 -2 9 -6 8 -4 -1 -8 5 -8 13 0 11 4 11 19 -2 13
-13 15 -20 7 -30z m-39 15 c0 -6 -4 -7 -10 -4 -17 10 -11 -7 7 -20 14 -11 13
-13 -9 -17 -19 -3 -25 -1 -21 8 3 8 -5 16 -21 20 -36 9 -33 25 4 18 20 -4 30
-2 30 5 0 7 5 9 10 6 6 -3 10 -11 10 -16z m-232 -30 c-21 -14 -26 -10 -21 11
4 16 8 18 20 9 11 -10 11 -14 1 -20z m122 16 c14 -16 10 -18 -14 -9 -9 3 -16
10 -16 15 0 14 16 11 30 -6z m-4 -27 c4 4 4 1 0 -5 -10 -17 -41 -16 -56 2 -10
12 -7 13 18 5 17 -4 34 -5 38 -2z m-180 -36 c-15 -15 -15 -15 -4 10 7 15 15
23 17 17 2 -6 -4 -18 -13 -27z m307 1 c-7 -3 -13 -13 -13 -24 0 -11 -7 -19
-17 -20 -17 -1 -17 -2 0 -6 9 -2 17 -13 17 -23 0 -20 -23 -43 -33 -33 -4 3
-14 0 -24 -8 -9 -8 -14 -9 -10 -2 4 6 1 13 -5 16 -10 3 -9 9 4 22 16 17 17 17
11 -6 -3 -13 -3 -22 0 -19 3 3 8 19 11 36 5 29 5 30 -33 28 -25 -1 -38 3 -38
12 0 9 12 11 43 7 41 -5 42 -4 37 19 -4 19 -3 20 7 8 10 -13 12 -13 23 2 8 13
14 14 22 6 7 -7 6 -12 -2 -15z m-173 -15 c0 -12 -28 -10 -35 2 -4 6 -11 8 -16
5 -5 -4 -14 -3 -21 1 -8 5 -6 9 7 14 19 7 65 -9 65 -22z m110 20 c0 -4 -4 -8
-9 -8 -6 0 -12 4 -15 8 -3 5 1 9 9 9 8 0 15 -4 15 -9z m-270 -12 c0 -11 -19
-15 -25 -6 -3 5 1 10 9 10 9 0 16 -2 16 -4z m56 -36 c18 0 35 -4 38 -8 4 -8
-39 -9 -109 -3 -20 2 -20 2 -1 16 13 10 23 12 30 5 5 -5 25 -10 42 -10z m130
-10 c8 0 14 -4 14 -10 0 -5 -6 -9 -12 -7 -7 1 -12 -6 -10 -15 2 -10 -2 -18 -7
-18 -5 0 -8 9 -6 20 2 13 -2 20 -11 20 -8 0 -14 5 -14 11 0 6 7 8 16 5 9 -3
22 -6 30 -6z m-989 -36 c16 -25 16 -27 -6 -43 -12 -9 -31 -30 -42 -46 -12 -17
-19 -22 -15 -12 6 20 -1 21 -37 5 -17 -8 -27 -21 -27 -35 0 -33 20 -39 42 -12
11 13 3 -8 -17 -48 -26 -51 -36 -86 -37 -121 -1 -37 -6 -52 -21 -62 -17 -10
-19 -10 -14 3 3 8 1 19 -5 25 -7 7 -6 21 2 46 6 20 12 68 13 107 0 48 5 73 14
76 7 3 15 21 19 40 5 24 9 31 15 22 15 -24 81 -12 78 14 -4 31 2 67 11 67 5 0
17 -12 27 -26z m135 -109 c24 -21 42 -44 40 -50 -2 -5 -1 -7 3 -3 4 3 21 0 39
-7 30 -13 35 -12 55 6 21 20 31 13 10 -8 -9 -9 -7 -10 9 -6 12 3 20 9 17 13
-3 5 -1 11 5 15 5 3 10 -1 10 -10 0 -9 4 -14 10 -10 5 3 7 11 5 18 -7 17 6 33
33 41 17 6 22 3 22 -11 0 -11 -5 -24 -12 -31 -9 -9 -9 -12 0 -12 21 0 62 23
62 35 0 24 46 23 70 -2 12 -12 28 -23 35 -23 13 0 31 -36 27 -52 -1 -5 3 -8 9
-8 7 0 9 9 6 21 -3 12 -1 33 5 48 10 25 10 25 18 5 14 -35 8 -214 -7 -214 -14
0 -14 -2 -18 57 -2 23 -8 51 -14 62 -6 11 -11 29 -11 40 0 23 -45 51 -82 51
-19 0 -20 2 -8 10 8 5 10 10 4 10 -6 0 -17 -7 -25 -16 -45 -54 -180 -78 -256
-44 -24 10 -43 16 -43 13 0 -3 -6 -1 -12 3 -15 11 -35 10 -60 -1 -19 -8 -25
-35 -8 -35 6 0 10 7 10 15 0 16 25 21 35 6 7 -12 -8 -21 -44 -26 -28 -3 -29
-2 -20 28 5 18 9 32 9 32 0 0 -10 0 -23 0 -20 0 -22 -4 -19 -30 3 -16 1 -27
-3 -23 -4 4 -16 3 -25 -2 -21 -11 -37 15 -21 34 5 6 10 16 10 21 3 25 13 45
22 40 5 -4 5 4 -1 19 -23 60 59 49 132 -19z m387 -67 c5 -15 4 -26 -3 -30 -8
-6 -8 -8 0 -8 8 0 4 -23 -10 -65 -12 -38 -27 -65 -35 -65 -9 0 -11 7 -6 23 18
58 32 124 30 145 -1 12 2 22 7 22 5 0 12 -10 17 -22z m-523 -85 c3 -16 10 -41
15 -57 6 -21 6 -32 -2 -37 -18 -10 -35 10 -33 40 1 14 -2 33 -6 41 -8 17 -2
40 11 40 5 0 11 -12 15 -27z m-121 -142 c-6 -5 -25 10 -25 20 0 5 6 4 14 -3 8
-7 12 -15 11 -17z"/>
<path d="M1543 1726 c1 -11 9 -21 17 -23 10 -3 11 -2 4 4 -6 4 -14 15 -17 23
-5 11 -6 9 -4 -4z"/>
<path d="M455 1400 c-8 -13 4 -32 16 -25 5 4 9 1 9 -6 0 -7 3 -9 7 -6 3 4 13
1 22 -5 9 -8 8 -3 -3 10 -11 12 -26 20 -34 17 -10 -3 -12 0 -8 10 6 17 0 20
-9 5z"/>
<path d="M2609 2553 c-26 -21 -56 -45 -67 -52 -33 -23 -33 -36 0 -56 17 -10
28 -13 24 -7 -11 18 14 25 40 11 15 -8 24 -21 24 -37 0 -15 7 -26 20 -29 11
-3 20 -12 20 -21 0 -8 3 -12 7 -9 3 4 12 2 18 -3 13 -11 48 -3 41 9 -2 3 2 12
10 18 8 8 15 9 19 3 3 -6 0 -10 -7 -10 -9 0 -10 -2 -2 -8 7 -4 11 -18 10 -32
-1 -25 5 -34 56 -78 l26 -24 33 36 c18 20 34 34 37 32 2 -3 -3 -12 -12 -21
-20 -20 -20 -29 0 -46 12 -10 22 -10 46 -1 30 11 30 11 13 -8 -10 -11 -22 -17
-28 -13 -5 3 -7 1 -4 -4 4 -6 0 -16 -7 -22 -12 -10 -11 -15 7 -34 l22 -22 24
25 c13 14 28 24 33 22 5 -1 7 2 3 8 -3 5 -1 10 5 10 6 0 9 4 5 9 -7 12 29 33
40 23 5 -4 5 -1 1 6 -4 7 -3 19 3 26 8 10 6 18 -10 31 -19 18 -22 18 -66 2
-33 -12 -42 -13 -34 -4 6 8 8 17 4 20 -3 4 -2 7 4 7 17 0 9 55 -10 75 -17 16
-19 16 -42 -9 -14 -16 -30 -23 -39 -20 -9 3 -13 10 -10 15 3 5 9 7 13 5 4 -3
8 8 9 24 2 27 -33 80 -52 80 -4 0 -14 7 -22 15 -16 16 -44 20 -44 8 0 -7 -16
-28 -60 -80 -5 -7 -10 -17 -10 -23 0 -5 -4 -10 -9 -10 -13 0 -3 53 12 62 9 6
9 8 -1 8 -7 0 -11 4 -8 9 3 4 8 27 11 51 4 33 1 46 -12 56 -26 20 -34 18 -84
-23z m44 -53 c-6 -21 -18 -26 -28 -11 -4 7 17 28 32 31 0 0 -1 -9 -4 -20z
m176 -86 c-18 -21 -31 -17 -24 9 7 22 7 22 -9 2 -8 -11 -16 -15 -16 -9 0 21
22 33 42 23 15 -8 17 -13 7 -25z m40 -63 c11 -7 8 -16 -17 -42 -30 -33 -31
-33 -30 -9 1 14 7 28 13 32 6 5 6 8 -2 8 -7 0 -13 5 -13 10 0 12 30 13 49 1z"/>
<path d="M660 2525 c-14 -8 -35 -20 -47 -26 -13 -7 -23 -16 -23 -21 0 -5 18
-36 40 -68 22 -32 40 -63 40 -68 0 -6 7 -12 15 -16 8 -3 15 -2 15 3 0 11 50
32 61 26 5 -4 6 2 2 11 -5 14 -3 16 12 10 11 -4 17 -4 13 -1 -3 3 0 22 7 43
14 40 9 59 -28 100 -24 26 -69 29 -107 7z m50 -36 c0 -5 5 -7 10 -4 6 3 10 -1
10 -9 0 -9 5 -16 10 -16 6 0 10 -8 10 -17 -1 -37 -50 -74 -50 -38 0 8 -3 15
-7 15 -5 0 -15 13 -24 29 -16 28 -16 29 5 39 28 14 36 14 36 1z"/>
<path d="M469 2381 l-43 -38 44 -54 c62 -76 78 -91 85 -79 4 6 11 8 16 5 5 -4
9 1 9 10 0 11 5 15 16 11 8 -3 13 -2 9 3 -3 5 1 15 8 23 42 41 44 80 7 127
-19 26 -30 31 -65 31 -35 0 -50 -7 -86 -39z m116 -45 c9 -27 0 -57 -21 -63
-11 -3 -64 65 -64 84 0 8 4 12 9 8 5 -3 12 -1 16 4 10 17 50 -5 60 -33z"/>
<path d="M376 2300 c-17 -18 -17 -20 -2 -26 9 -3 16 -11 16 -18 0 -6 13 -20
29 -31 34 -22 46 -54 27 -73 -11 -11 -21 -7 -57 24 -24 20 -45 40 -47 45 -6
15 -40 10 -46 -7 -4 -9 -1 -24 6 -32 26 -32 56 -59 72 -65 9 -4 16 -11 16 -17
0 -6 -5 -8 -12 -4 -7 4 -8 3 -4 -5 4 -6 13 -8 19 -4 7 4 23 9 37 11 14 1 32
12 42 22 18 22 33 27 22 8 -4 -7 -3 -10 1 -5 16 14 16 79 0 103 -16 25 -86 94
-95 93 -3 0 -14 -9 -24 -19z"/>
<path d="M742 903 c0 -5 -2 -17 -7 -28 -4 -11 -14 -35 -22 -54 -15 -38 -8 -55
11 -28 7 9 23 17 36 17 13 0 29 -8 36 -17 23 -32 24 -8 2 55 -15 46 -26 62
-39 62 -11 0 -18 -3 -17 -7z m20 -71 c-21 -6 -25 4 -11 30 l13 23 6 -25 c4
-17 2 -26 -8 -28z"/>
<path d="M901 845 c0 -50 3 -65 14 -65 9 0 13 9 12 28 -2 23 2 27 26 30 33 4
36 22 3 22 -13 0 -26 7 -30 15 -4 12 3 15 29 15 18 0 37 5 40 10 4 6 -13 10
-44 10 l-49 0 -1 -65z"/>
<path d="M1022 903 c1 -5 -6 -26 -16 -48 -25 -56 -27 -75 -10 -75 8 0 14 7 14
15 0 10 10 15 29 15 16 0 31 -6 35 -15 9 -24 28 -18 21 8 -19 65 -41 107 -57
107 -10 0 -17 -3 -16 -7z m20 -71 c-21 -6 -25 4 -11 30 l13 23 6 -25 c4 -17 2
-26 -8 -28z"/>
<path d="M1119 898 c-1 -24 -1 -93 0 -105 0 -7 6 -13 11 -13 6 0 10 24 10 53
l0 52 16 -32 c20 -40 29 -41 48 -5 l15 27 1 -48 c0 -34 4 -47 12 -45 8 3 12
26 13 64 0 48 -3 59 -18 62 -10 2 -20 -4 -24 -15 -14 -41 -26 -45 -39 -14 -13
31 -43 43 -45 19z"/>
<path d="M1269 896 c17 -21 20 -87 4 -93 -22 -9 -3 -23 30 -23 27 1 30 3 16
13 -20 16 -19 88 1 104 12 10 8 12 -24 13 -32 0 -36 -2 -27 -14z"/>
<path d="M1348 903 c-3 -7 -2 -76 1 -110 1 -16 91 -18 91 -3 0 6 -16 10 -35
10 l-35 0 0 55 c0 30 -4 55 -9 55 -6 0 -11 -3 -13 -7z"/>
<path d="M1420 903 c0 -5 9 -19 20 -33 11 -14 20 -40 20 -57 0 -23 5 -33 15
-33 10 0 14 8 11 23 -2 12 8 41 21 65 21 35 22 42 9 42 -9 0 -16 -4 -16 -8 0
-5 -6 -17 -14 -27 -14 -19 -15 -19 -27 8 -11 24 -39 39 -39 20z"/>
<path d="M1590 900 c0 -5 10 -10 23 -10 22 0 24 -4 23 -52 0 -31 5 -53 12 -56
12 -4 16 24 12 81 -1 23 2 27 24 27 14 0 26 5 26 10 0 6 -27 10 -60 10 -33 0
-60 -4 -60 -10z"/>
<path d="M1719 898 c-5 -73 -2 -112 9 -115 7 -3 12 5 12 21 0 33 10 33 40 1
26 -28 67 -33 76 -10 8 21 54 19 70 -2 23 -33 24 -7 2 55 -25 69 -52 84 -64
35 -4 -16 -14 -43 -21 -62 l-14 -33 -25 23 c-15 14 -20 25 -13 29 14 10 18 42
6 58 -5 6 -25 12 -43 12 -20 0 -34 -5 -35 -12z m61 -28 c0 -13 -7 -20 -20 -20
-19 0 -27 20 -13 33 13 14 33 6 33 -13z m129 -32 c1 -5 -8 -8 -19 -8 -23 0
-24 4 -8 33 11 21 11 21 19 2 4 -11 8 -23 8 -27z"/>
<path d="M1965 845 l-1 -65 38 0 c47 0 78 28 78 69 0 37 -31 61 -80 61 l-35 0
0 -65z m76 35 c36 -20 11 -79 -33 -80 -15 0 -18 9 -18 45 0 48 11 56 51 35z"/>
<path d="M2100 902 c0 -5 3 -12 7 -16 11 -11 14 -86 3 -86 -5 0 -10 -4 -10
-10 0 -5 14 -10 30 -10 28 0 42 14 21 22 -8 3 -15 44 -12 76 1 7 15 12 36 12
l35 0 0 -56 c0 -40 4 -54 12 -52 8 3 13 23 12 56 l0 52 33 0 c18 0 33 -3 34
-7 5 -47 3 -68 -8 -78 -16 -17 -6 -25 31 -25 26 1 29 3 16 13 -20 16 -22 97
-3 97 8 0 12 4 9 9 -8 12 -246 14 -246 3z"/>
<path d="M2376 888 c-34 -48 -7 -108 48 -108 37 0 51 12 61 53 5 18 2 35 -9
52 -22 33 -78 35 -100 3z m70 -6 c21 -14 23 -50 4 -67 -18 -16 -59 -13 -61 3
0 4 -2 15 -4 25 -6 31 34 57 61 39z"/>
<path d="M2506 848 c0 -79 24 -95 25 -16 l0 53 27 -52 c38 -76 58 -71 57 12 0
47 -4 65 -13 65 -8 0 -13 -10 -12 -22 1 -13 2 -34 1 -48 -1 -22 -4 -19 -24 20
-13 27 -30 46 -42 48 -18 2 -20 -3 -19 -60z"/>
<path d="M1131 600 l-1 -60 47 1 c45 2 46 2 13 8 -26 4 -35 11 -35 26 0 15 8
21 35 24 l35 4 -35 6 c-47 8 -47 34 0 42 34 6 33 6 -11 8 l-46 1 -2 -60z"/>
<path d="M1242 651 c-24 -15 -9 -45 26 -56 21 -6 32 -15 30 -25 -4 -16 -30
-18 -63 -4 -18 7 -18 6 -6 -9 26 -32 91 -19 91 19 0 19 -7 26 -30 31 -35 7
-47 20 -31 36 7 7 18 7 37 -1 20 -10 25 -10 22 0 -5 16 -58 22 -76 9z"/>
<path d="M1347 653 c21 -4 23 -9 20 -59 -1 -38 2 -54 10 -54 13 0 17 27 13 82
-1 20 4 27 22 31 13 2 -2 4 -32 4 -30 0 -45 -2 -33 -4z"/>
<path d="M1442 600 l1 -60 31 0 c43 0 65 18 70 57 5 39 -21 63 -70 63 l-32 0
0 -60z m70 33 c17 -20 16 -46 -3 -69 -22 -27 -43 -12 -45 31 -1 22 1 43 3 48
7 13 29 8 45 -10z"/>
<path d="M1696 651 c-4 -6 5 -9 21 -8 39 3 41 -25 4 -62 -17 -18 -31 -34 -31
-36 0 -3 21 -4 48 -3 37 1 40 2 14 5 l-33 4 26 27 c37 37 31 76 -12 80 -17 2
-34 -1 -37 -7z"/>
<path d="M1800 641 c-14 -26 -13 -74 2 -89 15 -15 55 -16 63 -1 11 17 13 62 4
86 -11 29 -54 31 -69 4z m51 -23 c1 -34 -1 -61 -6 -66 -1 -1 -9 0 -17 3 -16 6
-19 25 -11 68 7 39 33 35 34 -5z"/>
<path d="M1900 651 c0 -4 11 -6 25 -3 36 6 33 -28 -6 -73 l-31 -35 48 1 c30 1
38 4 22 6 -25 4 -41 23 -20 23 17 0 41 55 31 73 -10 17 -69 25 -69 8z"/>
<path d="M2022 645 c-7 -9 -8 -15 -2 -15 15 0 13 -77 -2 -83 -7 -3 5 -5 27 -5
22 0 32 2 23 5 -14 3 -17 14 -15 55 2 53 -9 68 -31 43z"/>
<path d="M1575 620 c-3 -5 1 -10 9 -10 9 0 16 5 16 10 0 6 -4 10 -9 10 -6 0
-13 -4 -16 -10z"/>
<path d="M1575 550 c-3 -5 1 -10 9 -10 9 0 16 5 16 10 0 6 -4 10 -9 10 -6 0
-13 -4 -16 -10z"/>
</g>
</svg>
